<svg width="362" height="303" viewBox="0 0 362 303" fill="none" xmlns="http://www.w3.org/2000/svg">
<mask id="mask0" mask-type="alpha" maskUnits="userSpaceOnUse" x="6" y="2" width="350" height="301">
<rect x="6" y="2" width="350" height="301" fill="#F9FAFC"/>
</mask>
<g mask="url(#mask0)">
<rect x="-14" y="-13" width="386" height="179" fill="url(#paint0_linear)"/>
<mask id="mask1" mask-type="alpha" maskUnits="userSpaceOnUse" x="-14" y="-13" width="386" height="179">
<rect x="-14" y="-13" width="386" height="179" fill="url(#paint1_linear)"/>
</mask>
<g mask="url(#mask1)">
<rect x="-13.884" y="76.0493" width="86.9099" height="86.9099" transform="rotate(-30 -13.884 76.0493)" fill="white" fill-opacity="0.05" stroke="white"/>
<path d="M48.5395 55.341L12.9015 75.9166C11.5893 76.6743 11.1406 78.3523 11.8982 79.6646L39.3311 127.18C40.0887 128.492 41.7674 128.942 43.0786 128.185L78.7166 107.609C80.0289 106.852 80.4776 105.174 79.72 103.861L52.287 56.3461C51.5294 55.0338 49.8518 54.5834 48.5395 55.341ZM48.9059 61.4639L53.0208 68.5911L22.1347 86.4232L18.0198 79.2959L48.9059 61.4639ZM42.7112 122.063L24.8782 91.175L55.7642 73.3429L73.5953 104.227L42.7092 122.059L42.7112 122.063Z" stroke="white"/>
<path d="M34.5869 88.372L29.6548 91.2195C28.9987 91.5984 28.7746 92.438 29.1528 93.093L32.0022 98.0283C32.381 98.6844 33.2206 98.9084 33.8757 98.5303L38.8078 95.6827C39.4639 95.3039 39.6879 94.4643 39.3098 93.8093L36.4603 88.874C36.082 88.2161 35.2453 87.9919 34.5869 88.372Z" stroke="white"/>
<path d="M43.9998 82.9374L39.0688 85.7843C38.4126 86.1631 38.1886 87.0027 38.5668 87.6577L41.4162 92.5931C41.795 93.2492 42.6335 93.4738 43.2896 93.095L48.2206 90.2481C48.8767 89.8693 49.1008 89.0297 48.7226 88.3747L45.8732 83.4394C45.4949 82.7815 44.6559 82.5586 43.9998 82.9374Z" stroke="white"/>
<path d="M53.4134 77.5025L48.4813 80.3501C47.8251 80.7289 47.6022 81.5678 47.9804 82.2228L50.8298 87.1582C51.2086 87.8143 52.0471 88.039 52.7021 87.6608L57.6342 84.8132C58.2904 84.4344 58.5144 83.5948 58.1362 82.9398L55.2868 78.0045C54.9073 77.3472 54.0695 77.1237 53.4134 77.5025Z" stroke="white"/>
<path d="M40.1799 98.0592L35.2477 100.907C34.5916 101.286 34.3669 102.124 34.7451 102.779L37.5945 107.714C37.9733 108.371 38.8123 108.593 39.4673 108.215L44.3994 105.368C45.0555 104.989 45.2802 104.15 44.9021 103.495L42.0526 98.56C41.6743 97.9022 40.8382 97.6791 40.1799 98.0592Z" stroke="white"/>
<path d="M49.5928 92.6248L44.6618 95.4717C44.0056 95.8505 43.7809 96.689 44.1591 97.344L47.0085 102.279C47.3873 102.935 48.2252 103.159 48.8813 102.78L53.8123 99.9333C54.4684 99.5544 54.6931 98.716 54.315 98.061L51.4655 93.1256C51.0872 92.4677 50.2489 92.246 49.5928 92.6248Z" stroke="white"/>
<path d="M45.7728 107.747L40.8407 110.594C40.1846 110.973 39.9599 111.811 40.3374 112.465L43.1869 117.401C43.5669 118.059 44.4053 118.281 45.0603 117.903L49.9924 115.055C50.6485 114.676 50.8726 113.837 50.4944 113.182L47.645 108.246C47.2673 107.59 46.4312 107.366 45.7728 107.747Z" stroke="white"/>
<path d="M55.1857 102.312L50.2547 105.159C49.5985 105.538 49.3739 106.376 49.7514 107.03L52.6008 111.965C52.9809 112.624 53.8181 112.846 54.4742 112.467L59.4052 109.62C60.0614 109.242 60.2854 108.402 59.9072 107.747L57.0578 102.812C56.6801 102.155 55.8418 101.933 55.1857 102.312Z" stroke="white"/>
<path d="M59.0063 87.1898L54.0742 90.0373C53.4181 90.4161 53.1945 91.254 53.5727 91.909L62.0144 106.53C62.3945 107.189 63.2317 107.411 63.8867 107.033L68.8188 104.185C69.4749 103.807 69.699 102.967 69.3208 102.312L60.8791 87.6906C60.4997 87.0334 59.6625 86.811 59.0063 87.1898Z" stroke="white"/>
<rect x="87.5163" y="17.5059" width="86.9099" height="86.9099" transform="rotate(-30 87.5163 17.5059)" fill="white" fill-opacity="0.05" stroke="white"/>
<path d="M148.276 1.43356C145.788 2.86999 143.996 -0.23507 141.508 1.20136C139.02 2.63778 140.813 5.74284 138.335 7.17323C135.857 8.60363 134.054 5.50461 131.577 6.935C129.099 8.36539 130.892 11.4704 128.404 12.9069C125.916 14.3433 124.134 11.2322 121.656 12.6626C119.179 14.093 120.961 17.2041 118.484 18.6345C116.006 20.0649 114.51 17.497 112.032 18.9274L142.305 71.3613L182.029 48.4268L151.756 -4.00719C149.268 -2.57076 150.754 0.00316871 148.276 1.43356Z" stroke="white"/>
<path d="M143.084 20.1532L154.67 13.464L156.343 16.3605L144.757 23.0497L143.084 20.1532Z" stroke="white"/>
<rect x="129.05" y="35.98" width="33.4462" height="3.34462" transform="rotate(-30 129.05 35.98)" stroke="white"/>
<rect x="132.394" y="41.7731" width="33.4462" height="3.34462" transform="rotate(-30 132.394 41.7731)" stroke="white"/>
<rect x="135.739" y="47.5661" width="33.4462" height="3.34462" transform="rotate(-30 135.739 47.5661)" stroke="white"/>
<rect x="139.084" y="53.3593" width="33.4462" height="3.34462" transform="rotate(-30 139.084 53.3593)" stroke="white"/>
<rect x="188.916" y="-41.0377" width="86.9099" height="86.9099" transform="rotate(-30 188.916 -41.0377)" fill="white" fill-opacity="0.05" stroke="white"/>
<path d="M276.274 -27.3372L264.185 -48.2758C263.329 -49.7585 261.759 -50.6786 260.066 -50.6897L236.157 -50.845C234.464 -50.8561 232.906 -49.9562 232.069 -48.4845L220.249 -27.7013C219.412 -26.2296 219.424 -24.4097 220.28 -22.927L232.369 -1.98847C233.225 -0.505792 234.795 0.414391 236.488 0.425446L260.397 0.580862C262.09 0.59192 263.648 -0.307924 264.485 -1.77964L276.305 -22.5629C277.142 -24.0345 277.13 -25.8545 276.274 -27.3372Z" fill="#7D80F2"/>
<path d="M236.488 0.425293C235.639 0.41978 234.82 0.185467 234.107 -0.234077L248.272 -25.1412L262.762 -0.0436136C262.056 0.363916 261.243 0.586126 260.397 0.580646L236.488 0.425293Z" fill="#8BB3EA" fill-opacity="0.1"/>
<rect x="251.984" y="69.5717" width="86.9099" height="86.9099" transform="rotate(-30 251.984 69.5717)" fill="white" fill-opacity="0.05" stroke="white"/>
<path d="M311.579 69.8857C310.699 68.3611 308.769 67.812 307.291 68.6656L293.353 76.7126L290.059 66.8792C289.979 66.648 289.878 66.4107 289.75 66.189C289.254 65.3297 288.47 64.7475 287.591 64.4974L284.181 63.5272L278.808 84.888C278.515 86.0555 278.658 87.3589 279.322 88.5092L289.725 106.528C291.053 108.829 293.927 109.646 296.158 108.358L314.302 97.8822C315.969 96.92 316.807 95.0502 316.548 93.2041L314.17 75.0246C314.072 74.4524 313.892 73.8914 313.58 73.3508L311.579 69.8857Z" stroke="white"/>
<path d="M310.628 101.348C311.508 102.872 313.438 103.421 314.917 102.568L328.854 94.5207L332.148 104.354C332.228 104.585 332.329 104.823 332.457 105.044C332.953 105.904 333.738 106.486 334.617 106.736L338.026 107.706L343.399 86.3453C343.692 85.1778 343.549 83.8744 342.885 82.724L332.482 64.7055C331.154 62.4046 328.281 61.5872 326.049 62.8753L307.905 73.3511C306.238 74.3133 305.4 76.1831 305.66 78.0292L308.038 96.2087C308.135 96.7809 308.316 97.3419 308.628 97.8824L310.628 101.348Z" stroke="white"/>
<rect x="150.888" y="127.269" width="89.3241" height="89.3241" transform="rotate(-30 150.888 127.269)" fill="white" fill-opacity="0.05" stroke="white"/>
<path d="M195.744 116.37L233.49 115.298L175.943 148.523L195.744 116.37Z" stroke="white"/>
<rect x="187.773" y="146.494" width="6.38029" height="38.2817" transform="rotate(-30 187.773 146.494)" stroke="white"/>
<rect x="204.35" y="136.923" width="6.38029" height="38.2817" transform="rotate(-30 204.35 136.923)" stroke="white"/>
<rect x="220.926" y="127.353" width="6.38029" height="38.2817" transform="rotate(-30 220.926 127.353)" stroke="white"/>
<rect x="200.912" y="183.112" width="6.38029" height="58.5227" transform="rotate(-120 200.912 183.112)" stroke="white"/>
<rect x="35.8394" y="183.225" width="86.9099" height="86.9099" transform="rotate(-30 35.8394 183.225)" fill="white" fill-opacity="0.05" stroke="white"/>
<path d="M82.7394 226.466C73.7141 221.16 69.6147 207.035 73.5243 192.441C77.9661 175.869 91.0467 164.978 102.745 168.112C102.758 168.117 102.773 168.122 102.79 168.125C103.8 173.302 104.376 185.219 93.0759 198.367C82.7235 210.414 81.8976 220.545 82.7394 226.466ZM105.374 182.751C103.944 188.099 101.049 194.208 95.6088 200.541C84.5656 213.389 85.2871 223.573 86.4301 228.046C86.5126 228.068 86.5864 228.098 86.6633 228.118C98.361 231.253 111.443 220.36 115.882 203.79C119.833 189.045 115.607 174.782 106.388 169.606C106.777 172.878 106.799 177.433 105.374 182.751Z" fill="url(#paint2_linear)"/>
</g>
</g>
<defs>
<linearGradient id="paint0_linear" x1="6.67858" y1="7.77678" x2="117.996" y2="281.77" gradientUnits="userSpaceOnUse">
<stop stop-color="#65AAFF"/>
<stop offset="1" stop-color="#5D21D4"/>
</linearGradient>
<linearGradient id="paint1_linear" x1="-14" y1="210.75" x2="112.149" y2="-95.5944" gradientUnits="userSpaceOnUse">
<stop stop-color="#00DBE2"/>
<stop offset="1" stop-color="#01BFE3"/>
</linearGradient>
<linearGradient id="paint2_linear" x1="94.4723" y1="187.007" x2="114.28" y2="204.243" gradientUnits="userSpaceOnUse">
<stop stop-color="white"/>
<stop offset="1" stop-color="white" stop-opacity="0.67"/>
</linearGradient>
</defs>
</svg>
